<svg width="52" height="52" viewBox="0 0 52 52" fill="none" xmlns="http://www.w3.org/2000/svg">
<rect width="52" height="52" rx="12" fill="#F5F5F5"/>
<path d="M26.0003 39.3334C18.6365 39.3334 12.667 33.3638 12.667 26C12.667 18.6362 18.6365 12.6667 26.0003 12.6667C33.3641 12.6667 39.3337 18.6362 39.3337 26C39.3256 33.3605 33.3608 39.3253 26.0003 39.3334ZM20.303 29.716C20.131 29.717 19.9597 29.7376 19.7923 29.7774L19.5923 29.832L18.8003 31.188C18.4999 31.6892 18.6448 32.3378 19.13 32.6634C19.6152 32.989 20.2704 32.8773 20.6203 32.4094L20.703 32.2854L21.7563 30.4574C21.4103 29.9945 20.8676 29.7202 20.2897 29.716H20.303ZM27.615 21.5467C27.2001 21.9364 26.9251 22.4518 26.8323 23.0134C26.6837 23.7877 26.8261 24.5896 27.2323 25.2654L31.2857 32.2867C31.4837 32.6215 31.8434 32.8272 32.2323 32.828C32.3992 32.8275 32.5637 32.7892 32.7137 32.716C33.2277 32.4625 33.46 31.8561 33.247 31.324L33.1817 31.1907L32.115 29.336H33.7017C34.2782 29.3312 34.7527 28.881 34.7878 28.3056C34.8229 27.7301 34.4067 27.2256 33.835 27.1507L33.7017 27.1427H30.8483L27.923 22.076L27.6177 21.5427L27.615 21.5467ZM18.347 27.1334C18.2057 27.1335 18.0658 27.1611 17.935 27.2147C17.8025 27.27 17.682 27.3506 17.5803 27.452C17.3749 27.658 17.2598 27.9371 17.2603 28.228C17.2605 28.7805 17.671 29.2469 18.219 29.3174L18.3523 29.324H28.3257C28.5494 28.8742 28.541 28.3438 28.303 27.9014C28.1003 27.4865 27.7034 27.2007 27.2457 27.14L27.0843 27.132H23.683L28.387 18.9867C28.5319 18.7342 28.5712 18.4347 28.4963 18.1534C28.4219 17.8715 28.2374 17.6313 27.9843 17.4867C27.5083 17.2126 26.903 17.3322 26.567 17.7667L26.4843 17.8894L26.0003 18.7347L25.5217 17.8894C25.3237 17.5546 24.9639 17.3489 24.575 17.348C24.4077 17.3486 24.2428 17.3869 24.0923 17.46C23.5786 17.7145 23.3465 18.3209 23.559 18.8534L23.6243 18.9867L24.731 20.9334L21.151 27.1334H18.347Z" fill="#2E3A59"/>
</svg>
