<svg width="52" height="52" viewBox="0 0 52 52" fill="none" xmlns="http://www.w3.org/2000/svg">
<rect width="52" height="52" rx="12" fill="#F5F5F5"/>
<path d="M18.1996 38C17.9722 38.0037 17.7461 37.9648 17.533 37.8853L28.2716 27.1427L31.8263 30.7013L19.4863 37.6347C19.0954 37.8638 18.6526 37.9895 18.1996 38ZM16.6476 37.1133C16.4293 36.718 16.3207 36.2715 16.333 35.82V16.2133C16.3312 15.9157 16.3762 15.6197 16.4663 15.336L27.4436 26.316L16.6436 37.116L16.6476 37.1133ZM32.8863 30.1027L29.0983 26.3173L33.2756 22.1413L36.9863 24.2253C37.6986 24.5441 38.1752 25.2318 38.2236 26.0107C38.1754 26.7903 37.6982 27.4787 36.985 27.7973L32.8863 30.1027ZM28.2716 25.4853L17.1516 14.3667C17.4569 14.1409 17.8266 14.0189 18.2063 14.0187C18.6548 14.0346 19.0923 14.1615 19.4796 14.388L32.2143 21.5453L28.273 25.4853H28.2716Z" fill="#2E3A59"/>
</svg>
